<svg width="16" height="16" viewBox="0 0 16 16" fill="none" xmlns="http://www.w3.org/2000/svg">
<path fillRule="evenodd" clipRule="evenodd" d="M0.5 2.75C0.5 1.64543 1.39543 0.75 2.5 0.75H13.5C14.6046 0.75 15.5 1.64543 15.5 2.75V13.25C15.5 14.3546 14.6046 15.25 13.5 15.25H2.5C1.39543 15.25 0.5 14.3546 0.5 13.25V2.75ZM13.1563 2.5625H2.84375C2.41228 2.5625 2.0625 2.90062 2.0625 3.31771V8.15104C2.0625 8.56813 2.41228 8.90625 2.84375 8.90625H5.15625C5.43239 8.90625 5.65625 9.12265 5.65625 9.38958V10.5677C5.65625 10.9848 6.00603 11.3229 6.4375 11.3229H9.5625C9.99397 11.3229 10.3438 10.9848 10.3438 10.5677V9.38958C10.3438 9.12265 10.5676 8.90625 10.8438 8.90625H13.1563C13.5877 8.90625 13.9375 8.56813 13.9375 8.15104V3.31771C13.9375 2.90062 13.5877 2.5625 13.1563 2.5625Z" fill="#99999C"/>
<path fillRule="evenodd" clipRule="evenodd" d="M2.84375 2.5625H13.1563C13.5877 2.5625 13.9375 2.90062 13.9375 3.31771V8.15104C13.9375 8.56813 13.5877 8.90625 13.1563 8.90625H10.8438C10.5676 8.90625 10.3438 9.12265 10.3438 9.38958V10.5677C10.3438 10.9848 9.99397 11.3229 9.5625 11.3229H6.4375C6.00603 11.3229 5.65625 10.9848 5.65625 10.5677V9.38958C5.65625 9.12265 5.43239 8.90625 5.15625 8.90625H2.84375C2.41228 8.90625 2.0625 8.56813 2.0625 8.15104V3.31771C2.0625 2.90062 2.41228 2.5625 2.84375 2.5625ZM11.5 4.375H4.5C4.36193 4.375 4.25 4.4832 4.25 4.61667V5.34167C4.25 5.47514 4.36193 5.58333 4.5 5.58333H11.5C11.6381 5.58333 11.75 5.47514 11.75 5.34167V4.61667C11.75 4.4832 11.6381 4.375 11.5 4.375Z" fill="#E2E3E5"/>
</svg>
