<svg width="16" height="16" viewBox="0 0 16 16" fill="none" xmlns="http://www.w3.org/2000/svg">
<g clipPath="url(#clip0_656_598)">
<path fillRule="evenodd" clipRule="evenodd" d="M0.5 6.32851V12.0179C0.5 12.9054 1.21954 13.625 2.10714 13.625H13.8929C14.7804 13.625 15.5 12.9054 15.5 12.0179V6.32851H0.5ZM10.0089 10.4107C10.0089 10.0409 10.3087 9.74107 10.6786 9.74107H12.2857C12.6556 9.74107 12.9554 10.0409 12.9554 10.4107C12.9554 10.7806 12.6556 11.0804 12.2857 11.0804H10.6786C10.3087 11.0804 10.0089 10.7806 10.0089 10.4107Z" fill="#99999C"/>
<path d="M2.10714 2.375C1.21954 2.375 0.5 3.09454 0.5 3.98214V4.98922H15.5V3.98214C15.5 3.09454 14.7804 2.375 13.8929 2.375H2.10714Z" fill="#E2E3E5"/>
</g>
<defs>
<clipPath id="clip0_656_598">
<rect width="15" height="15" fill="white" transform="translate(0.5 0.5)"/>
</clipPath>
</defs>
</svg>
