<svg width="16" height="16" viewBox="0 0 16 16" fill="none" xmlns="http://www.w3.org/2000/svg">
<path d="M14.4939 7.22058C13.5294 6.25611 12.2213 5.71427 10.8573 5.71427C10.0835 5.71376 9.31955 5.88788 8.62236 6.22365C7.92519 6.55943 7.31277 7.0482 6.83074 7.65355C6.34871 8.25891 6.0095 8.96523 5.83839 9.71991C5.66728 10.4746 5.66866 11.2581 5.84247 12.0122C6.01626 12.7663 6.35798 13.4714 6.84216 14.075C7.32634 14.6786 7.9405 15.1652 8.63887 15.4985C9.33724 15.8318 10.1018 16.0032 10.8756 16C11.6495 15.9967 12.4126 15.8188 13.1081 15.4796L15.4075 15.8934C15.6691 15.9404 15.8824 15.6849 15.7894 15.4359L15.141 13.7008C15.7042 12.8596 16.0034 11.8695 16.0002 10.8571C16.0002 9.49316 15.4584 8.18505 14.4939 7.22058Z" fill="#E2E3E5"/>
<path d="M6.30309 -1.38846e-05C4.63142 -1.38846e-05 3.02821 0.664059 1.84615 1.84611C0.664101 3.02817 3.13657e-05 4.63137 3.13657e-05 6.30305C-0.00390503 7.54373 0.362754 8.75732 1.05301 9.78827L0.210821 12.042C0.117791 12.291 0.331129 12.5465 0.592697 12.4995L3.54457 11.9684C3.83774 12.1113 4.1407 12.231 4.45062 12.3265C4.34272 11.854 4.28573 11.3622 4.28573 10.8571C4.28573 7.22783 7.22785 4.2857 10.8572 4.2857C11.3644 4.2857 11.8582 4.34316 12.3323 4.45194C12.1011 3.69916 11.7304 2.995 11.2381 2.37676C10.6473 1.63484 9.89672 1.0358 9.04226 0.624281C8.18779 0.212758 7.25149 -0.000640079 6.30309 -1.38846e-05Z" fill="#929292"/>
</svg>
